# File created by Blade
# Date/Time:  Tue Apr 07 20:41:02 2015
# Frame Rate: 120.000 fps
#------------------------------------------------------
:FULLY-SPECIFIED
:DEGREES
512
root 3.538848 32.378944 -4.200268 1.798681 -6.902099 -16.767986
Spine 46.624132 12.619524 25.856940
Head -40.136940 -3.781270 7.532781
LeftShoulder -22.008766 40.650442 9.673703
LeftArm 53.152227 -8.338516 -79.175798
LeftForeArm 5.872020 -0.000000 31.637402
LeftHand 9.883496 -0.000000 16.353062
LeftHandThumb1 -26.253704 0.000000 33.147579
RightShoulder 13.739783 10.304890 -12.640773
RightArm 24.042171 33.738778 90.128958
RightForeArm 62.128592 -0.000000 15.690054
RightHand -1.667476 0.000000 33.858202
RightHandThumb1 -24.326973 -0.000000 -32.862282
LeftUpLeg -19.404883 1.916879 9.301886
LeftLeg 28.515632 -0.000000 -0.000000
LeftFoot -14.112859 13.150252 -12.407750
LeftToeBase -5.007700 -0.000000 0.000000
RightUpLeg -120.876105 -18.167507 29.456332
RightLeg 113.814976 -0.000000 -0.000000
RightFoot 42.936812 3.028586 13.404172
RightToeBase 17.046464 -0.000000 -0.000000
513
root 3.539906 32.395454 -4.183034 1.757788 -6.965187 -16.887676
Spine 46.592761 12.535451 25.897074
Head -40.144274 -3.729835 7.469860
LeftShoulder -21.995318 40.606774 9.698809
LeftArm 53.136836 -8.325569 -79.144861
LeftForeArm 5.880472 -0.000000 31.670914
LeftHand 10.058823 -0.000000 16.496860
LeftHandThumb1 -26.253704 0.000000 33.147579
RightShoulder 13.762336 10.393378 -12.580921
RightArm 24.001567 33.742627 90.127030
RightForeArm 61.049885 -0.000000 15.968692
RightHand -1.068125 -0.000000 33.212190
RightHandThumb1 -24.326973 -0.000000 -32.862282
LeftUpLeg -19.288327 1.943082 9.437200
LeftLeg 28.483858 -0.000000 -0.000000
LeftFoot -14.033029 13.132107 -12.402160
LeftToeBase -5.100129 -0.000000 0.000000
RightUpLeg -120.872457 -18.066138 29.548407
RightLeg 113.773802 -0.000000 -0.000000
RightFoot 43.062670 3.201050 13.543504
RightToeBase 17.309775 -0.000000 -0.000000
514
root 3.539528 32.410510 -4.166569 1.760948 -6.996555 -16.992102
Spine 46.502317 12.494450 25.921440
Head -40.191762 -3.681780 7.466629
LeftShoulder -21.939854 40.569505 9.773275
LeftArm 53.124258 -8.337779 -79.162580
LeftForeArm 5.927259 0.000000 31.756260
LeftHand 10.072541 -0.000000 16.541171
LeftHandThumb1 -26.253704 0.000000 33.147579
RightShoulder 13.744973 10.442584 -12.508457
RightArm 23.932444 33.812988 90.103455
RightForeArm 60.411377 -0.000000 16.318513
RightHand -1.204901 -0.000000 33.047719
RightHandThumb1 -24.326973 -0.000000 -32.862282
LeftUpLeg -19.216142 1.950385 9.542952
LeftLeg 28.425680 -0.000000 -0.000000
LeftFoot -13.954413 13.189675 -12.349465
LeftToeBase -5.249194 -0.000000 0.000000
RightUpLeg -120.964855 -17.971575 29.665165
RightLeg 113.788529 -0.000000 -0.000000
RightFoot 43.155701 3.277494 13.451888
RightToeBase 17.897511 -0.000000 -0.000000
515
root 3.538437 32.424743 -4.148785 1.761824 -7.010464 -17.097527
Spine 46.396166 12.455331 25.953003
Head -40.211814 -3.667753 7.458348
LeftShoulder -21.895184 40.544774 9.850960
LeftArm 53.155282 -8.323228 -79.153677
LeftForeArm 5.923907 -0.000000 31.788334
LeftHand 10.100276 -0.000000 16.540640
LeftHandThumb1 -26.253704 0.000000 33.147579
RightShoulder 13.767722 10.461462 -12.446790
RightArm 23.840317 33.974818 90.084897
RightForeArm 60.074379 -0.000000 16.688364
RightHand -1.592614 0.000000 33.303197
RightHandThumb1 -24.326973 -0.000000 -32.862282
LeftUpLeg -19.131355 1.965160 9.645207
LeftLeg 28.344376 -0.000000 -0.000000
LeftFoot -13.902048 13.257167 -12.271701
LeftToeBase -5.287286 -0.000000 0.000000
RightUpLeg -121.101381 -17.901456 29.799090
RightLeg 113.839503 -0.000000 -0.000000
RightFoot 43.128102 3.525858 13.121728
RightToeBase 18.945649 -0.000000 -0.000000
516
root 3.535750 32.436105 -4.131069 1.785906 -7.018319 -17.178063
Spine 46.251789 12.421297 25.922830
Head -40.229276 -3.625374 7.486169
LeftShoulder -21.879827 40.491409 9.925432
LeftArm 53.149452 -8.299718 -79.108615
LeftForeArm 5.963861 0.000000 31.813388
LeftHand 10.221784 -0.000000 16.594305
LeftHandThumb1 -26.253704 0.000000 33.147579
RightShoulder 13.799536 10.444427 -12.423343
RightArm 23.716398 33.875646 90.084719
RightForeArm 59.674892 0.000000 17.177804
RightHand -1.719451 0.000000 33.854030
RightHandThumb1 -24.326973 -0.000000 -32.862282
LeftUpLeg -19.068157 2.016279 9.718885
LeftLeg 28.264428 -0.000000 -0.000000
LeftFoot -13.893487 13.274900 -12.227762
LeftToeBase -5.287400 -0.000000 0.000000
RightUpLeg -121.299208 -17.829072 29.930405
RightLeg 113.921306 -0.000000 -0.000000
RightFoot 43.127634 3.616300 13.033215
RightToeBase 19.322062 -0.000000 -0.000000
517
root 3.532237 32.449662 -4.111011 1.784292 -7.031580 -17.282058
Spine 46.139833 12.405532 25.943121
Head -40.252821 -3.596903 7.493781
LeftShoulder -21.843613 40.425789 10.004191
LeftArm 53.159544 -8.294019 -79.085507
LeftForeArm 5.994884 -0.000000 31.849886
LeftHand 10.181841 -0.000000 16.569222
LeftHandThumb1 -26.253704 0.000000 33.147579
RightShoulder 13.799970 10.337926 -12.420214
RightArm 23.642827 33.809497 90.122171
RightForeArm 59.685644 -0.000000 17.699514
RightHand -2.121844 -0.000000 34.367367
RightHandThumb1 -24.326973 -0.000000 -32.862282
LeftUpLeg -18.958576 2.105339 9.817544
LeftLeg 28.161711 -0.000000 -0.000000
LeftFoot -13.893326 13.206534 -12.293258
LeftToeBase -5.325252 -0.000000 0.000000
RightUpLeg -121.479986 -17.798198 30.067610
RightLeg 114.005810 -0.000000 -0.000000
RightFoot 43.162249 3.690310 12.947070
RightToeBase 19.447185 -0.000000 -0.000000
518
root 3.528037 32.461034 -4.087828 1.788755 -7.040914 -17.361134
Spine 46.002742 12.424192 25.920350
Head -40.300817 -3.541311 7.570907
LeftShoulder -21.806280 40.366536 10.100556
LeftArm 53.181179 -8.304704 -79.079199
LeftForeArm 6.058104 -0.000000 31.876619
LeftHand 10.200687 -0.000000 16.568577
LeftHandThumb1 -26.253704 0.000000 33.147579
RightShoulder 13.773379 10.226912 -12.388774
RightArm 23.544960 33.657010 90.138875
RightForeArm 59.889306 0.000000 18.117891
RightHand -2.390467 0.000000 34.543949
RightHandThumb1 -24.326973 -0.000000 -32.862282
LeftUpLeg -18.849605 2.200488 9.890340
LeftLeg 28.055549 -0.000000 -0.000000
LeftFoot -13.903705 13.171167 -12.275375
LeftToeBase -5.337830 -0.000000 0.000000
RightUpLeg -121.704664 -17.782065 30.199589
RightLeg 114.098534 -0.000000 -0.000000
RightFoot 43.295282 3.314548 13.227134
RightToeBase 19.010553 -0.000000 -0.000000
